<?xml version="1.0" encoding="UTF-8"?>
<!DOCTYPE svg PUBLIC "-//W3C//DTD SVG 1.1//EN" "http://www.w3.org/Graphics/SVG/1.1/DTD/svg11.dtd">
<!-- Creator: CorelDRAW 2021 (64-Bit) -->
<svg xmlns="http://www.w3.org/2000/svg" xml:space="preserve" width="24px" height="24px" version="1.1" shape-rendering="geometricPrecision" text-rendering="geometricPrecision" image-rendering="optimizeQuality" fill-rule="evenodd" clip-rule="evenodd"
viewBox="0 0 512 512"
 xmlns:xlink="http://www.w3.org/1999/xlink"
 xmlns:xodm="http://www.corel.com/coreldraw/odm/2003">
 <g id="Layer_x0020_1">
  <metadata id="CorelCorpID_0Corel-Layer"/>
  <path fill="black" fill-rule="nonzero" d="M484.7 256c0,-63.16 -25.6,-120.35 -66.97,-161.73 -41.39,-41.37 -98.58,-66.98 -161.73,-66.98 -63.16,0 -120.35,25.61 -161.73,66.98 -41.37,41.39 -66.98,98.57 -66.98,161.73 0,63.16 25.61,120.35 66.98,161.73 41.38,41.37 98.57,66.97 161.73,66.97 63.15,0 120.34,-25.6 161.73,-66.97 41.37,-41.38 66.97,-98.57 66.97,-161.73zm-129.33 -0.38l-65.44 0.02 0 -86.06 -67.86 0 0 86.06 -65.45 0c-1.07,0 -1.9,0.32 -2.43,0.8 -0.35,0.33 -0.68,0.8 -0.91,1.34 -0.2,0.45 -0.31,1.03 -0.31,1.66 0,0.82 0.29,1.67 0.92,2.36l100.45 102.73c0.7,0.58 1.52,0.89 2.28,0.89 0.86,0 1.74,-0.29 2.46,-0.87 32.17,-29.2 68.11,-70.68 99.06,-102.82 0.65,-0.76 0.96,-1.55 0.96,-2.21 0,-0.55 -0.14,-1.14 -0.39,-1.69 -0.22,-0.47 -0.59,-0.96 -1.07,-1.38 -0.58,-0.53 -1.4,-0.87 -2.27,-0.83zm-38.15 -27.27l38.15 0c7.93,0.06 14.86,2.96 20.12,7.53 3.38,2.9 6.08,6.58 7.95,10.66 1.84,4.01 2.84,8.46 2.84,12.98 -0.01,7 -2.35,14.11 -7.58,20.1l-99.11 102.89c-1.04,1.14 -2.08,2.14 -3.06,2.96 -5.83,4.83 -13.01,7.19 -20.12,7.13 -7.2,-0.07 -14.38,-2.62 -20.06,-7.63 -34.04,-34.9 -68.06,-70.29 -102.51,-104.74 -5.63,-6.14 -8.17,-13.55 -8.17,-20.79 0,-4.27 0.93,-8.57 2.67,-12.54 1.71,-3.91 4.26,-7.52 7.52,-10.51 5.35,-4.9 12.48,-8.04 20.76,-8.04l38.16 0 0 -59.79c0,-7.22 2.97,-13.81 7.72,-18.56 4.81,-4.75 11.37,-7.72 18.56,-7.72l69.88 0c7.17,0 13.74,2.97 18.51,7.73 4.8,4.82 7.77,11.38 7.77,18.55l0 59.79zm119.79 -153.36c46.33,46.32 74.99,110.33 74.99,181.01 0,70.68 -28.66,134.69 -74.99,181.01 -46.33,46.33 -110.34,74.99 -181.01,74.99 -70.68,0 -134.69,-28.66 -181.01,-74.99 -46.33,-46.32 -74.99,-110.33 -74.99,-181.01 0,-70.67 28.66,-134.68 74.99,-181.01 46.32,-46.33 110.33,-74.99 181.01,-74.99 70.67,0 134.68,28.66 181.01,74.99z"/>
 </g>
</svg>
