<?xml version="1.0" encoding="utf-8"?><svg version="1.1" id="Layer_1" xmlns="http://www.w3.org/2000/svg" xmlns:xlink="http://www.w3.org/1999/xlink" x="0px" y="0px" width="18px" height="18px" viewBox="0 0 122.88 66.56" style="enable-background:new 0 0 122.88 66.56" xml:space="preserve"><style type="text/css">.st0{fill-rule:evenodd;clip-rule:evenodd;}</style><g><path class="st0" d="M0,3.27c0.2-2.04,1.28-2.86,3.36-2.32c2.9,0.71,5.87,0.98,8.91,0.79c7.02-0.44,9.14-3.14,17.05-0.79 C40.2,4.39,50.95,7.59,60.83,9.22C74.79,8.2,84.61,2.25,94.54,0.69c8.65-2.18,14.2,3,25.18,0c2.51-0.21,3.41,0.17,3.1,3.36 c-0.66,12.31-2.38,32.36-12.06,43.11c-7.91,8.78-22.25,8.78-33.7,13.96l-14.67,5.44c-6.72-0.84-13.33-3.32-19.89-6.59 c-8.38-3.24-14.94-4.91-21.05-6.2C2.86,45.53,1.2,20.98,0,3.27L0,3.27z M15.4,14.96c11.08-0.19,30.75,0.11,35.08,13.25 c0.8,2.43,0.8,4.91-0.03,7.55C27.99,37.02,20.87,30.28,15.4,14.96L15.4,14.96z M107.48,18.23c-11.85-4.66-35.98-5.8-39.86,9.98 c-0.61,2.49-1.16,4.91-0.34,7.55C89.2,36.06,99.96,32.88,107.48,18.23L107.48,18.23z"/></g></svg>